<?xml version="1.0" encoding="utf-8"?>
<!-- Generator: Adobe Illustrator 15.1.0, SVG Export Plug-In . SVG Version: 6.00 Build 0)  -->
<!DOCTYPE svg PUBLIC "-//W3C//DTD SVG 1.1//EN" "http://www.w3.org/Graphics/SVG/1.1/DTD/svg11.dtd">
<svg version="1.1" id="Layer_1" xmlns="http://www.w3.org/2000/svg" xmlns:xlink="http://www.w3.org/1999/xlink" x="0px" y="0px"
	 width="122.5px" height="132.125px" viewBox="0 0 122.5 132.125" enable-background="new 0 0 122.5 132.125" xml:space="preserve">
<polygon fill="#FFFFFF" points="46.32,99.959 36.23,115.559 51.737,112.332 "/>
<g>
	<path fill="none" d="M71.85,41.043c-0.04-0.682-0.097-1.344-0.158-1.998c-1.187,0.307-2.059,1.279-2.059,2.444
		c0,1.411,1.271,2.555,2.84,2.555c1.566,0,2.838-1.144,2.838-2.555c0-1.259-1.014-2.299-2.345-2.509
		c0.062,0.652,0.121,1.309,0.162,1.988L71.85,41.043z"/>
	<path fill="none" d="M51.331,14.096c-3.134,0.033-6.315,0.873-9.317,2.486c-4.928,2.661-9.304,7.373-12.007,13.822l11.553-0.007
		C43.216,23.471,46.803,17.947,51.331,14.096z"/>
	<path fill="none" d="M27.854,37.686c-0.139,0.748-0.262,1.508-0.359,2.287l-1.278-0.125v-0.024
		c0.099-0.787,0.222-1.556,0.362-2.313c-1.475,0.092-2.644,1.187-2.644,2.538c0,1.411,1.271,2.554,2.839,2.554
		c1.569,0,2.839-1.144,2.839-2.554C29.614,38.98,28.887,38.069,27.854,37.686z"/>
	<path fill="none" d="M42.957,30.396l7.686-0.005l5.059,11.346l-6.987,12.389l-9.707-21.094h-9.967
		c-0.101,0.312-0.208,0.617-0.302,0.936h8.902l11.08,23.155l12.929-23.155h9.298c-1.736-8.584-5.568-14.205-10.289-17.211
		c-2.324-1.477-4.847-2.319-7.45-2.575C48.489,17.851,44.692,23.349,42.957,30.396z"/>
	<path fill="#FFFFFF" d="M109.287,30.226H90.437c-1.208-11.148-5.819-16.071-12.064-19.683c-3.233-1.85-6.836-2.765-10.498-2.765
		c-3.66-0.022-7.352,0.867-10.811,2.549c-1.478,0.722-2.912,1.594-4.276,2.606c-0.42-0.029-0.841-0.044-1.264-0.044
		c-3.436-0.023-6.899,0.901-10.148,2.645c-5.274,2.849-9.936,7.931-12.737,14.871l-4.211,0.002l-14.22,2.625h17.489
		c-0.097,0.309-0.191,0.62-0.281,0.936H10.008l23.053,39.555l-23.094,37.93l25.04,3.921L46.52,98.318l9.408,20.504l34.723,5.328
		L62.171,78.08l29.498-44.111H72.244c-1.796-9.053-5.851-15.006-10.865-18.208c-2.119-1.34-4.408-2.196-6.766-2.598
		c1.013-0.686,2.057-1.301,3.129-1.825c3.263-1.587,6.725-2.402,10.131-2.402c3.404,0,6.726,0.84,9.731,2.571
		c5.928,3.415,10.309,8.021,11.469,18.72h-13.25l-1.641,2.807H93.92L64.208,78.21l27.591,45.679l15.999-4.543L82.276,75.444
		L109.287,30.226z M42.014,16.583c3.002-1.614,6.183-2.453,9.317-2.486c-4.528,3.851-8.114,9.375-9.771,16.301l-11.553,0.007
		C32.71,23.955,37.085,19.243,42.014,16.583z M26.775,42.602c-1.568,0-2.839-1.144-2.839-2.554c0-1.351,1.169-2.445,2.644-2.538
		c-0.14,0.757-0.263,1.526-0.362,2.313v0.024l1.278,0.125c0.098-0.779,0.221-1.539,0.359-2.287c1.032,0.383,1.759,1.294,1.759,2.362
		C29.614,41.458,28.344,42.602,26.775,42.602z M75.311,41.49c0,1.411-1.271,2.555-2.838,2.555c-1.569,0-2.84-1.144-2.84-2.555
		c0-1.166,0.872-2.138,2.059-2.444c0.062,0.654,0.118,1.316,0.158,1.998l1.278-0.075c-0.041-0.679-0.1-1.336-0.162-1.988
		C74.297,39.191,75.311,40.231,75.311,41.49z M60.661,16.757c4.72,3.006,8.552,8.627,10.289,17.211h-9.298L48.722,57.123
		l-11.08-23.155H28.74c0.094-0.318,0.201-0.624,0.302-0.936h9.967l9.707,21.094l6.987-12.389l-5.059-11.346l-7.686,0.005
		c1.735-7.047,5.532-12.545,10.254-16.214C55.813,14.438,58.337,15.28,60.661,16.757z"/>
</g>
</svg>
