<?xml version="1.0" encoding="utf-8"?>
<!-- Generator: Adobe Illustrator 16.0.0, SVG Export Plug-In . SVG Version: 6.00 Build 0)  -->
<!DOCTYPE svg PUBLIC "-//W3C//DTD SVG 1.1//EN" "http://www.w3.org/Graphics/SVG/1.1/DTD/svg11.dtd">
<svg version="1.1" id="Layer_1" xmlns="http://www.w3.org/2000/svg" xmlns:xlink="http://www.w3.org/1999/xlink" x="0px" y="0px"
	 width="16px" height="16px" viewBox="0 0 16 16" enable-background="new 0 0 16 16" xml:space="preserve">
<path fill="#EAEAEA" d="M5.401,12.896l2.931,2.93C8.446,15.938,8.599,16,8.754,16c0.072,0,0.146-0.012,0.216-0.041
	c0.22-0.085,0.37-0.294,0.379-0.53l0.229-5.336c0.016-0.149,0.113-0.512,0.698-0.535l5.151-0.203
	c0.236-0.01,0.445-0.158,0.532-0.378c0.087-0.22,0.034-0.471-0.134-0.638L7.658,0.175C7.546,0.063,7.395,0,7.236,0
	C7.078,0,6.927,0.063,6.815,0.175L3.988,3.004L2.725,4.269L0.171,6.824C0.163,6.832,0.16,6.843,0.152,6.851
	c-0.039,0.044-0.07,0.092-0.095,0.144C0.047,7.017,0.04,7.038,0.032,7.06C0.018,7.105,0.009,7.152,0.006,7.2
	C0.003,7.224,0.001,7.246,0.001,7.27c0,0.012-0.003,0.022-0.001,0.035c0,0,0.061,0.178,0.227,0.369
	C0.392,7.864,5.401,12.896,5.401,12.896z"/>
</svg>
