<?xml version="1.0" encoding="utf-8"?>
<!-- Generator: Adobe Illustrator 15.1.0, SVG Export Plug-In . SVG Version: 6.00 Build 0)  -->
<!DOCTYPE svg PUBLIC "-//W3C//DTD SVG 1.1//EN" "http://www.w3.org/Graphics/SVG/1.1/DTD/svg11.dtd">
<svg version="1.1" id="Layer_1" xmlns="http://www.w3.org/2000/svg" xmlns:xlink="http://www.w3.org/1999/xlink" x="0px" y="0px"
	 width="15.467px" height="14.323px" viewBox="-3.152 0.338 15.467 14.323" enable-background="new -3.152 0.338 15.467 14.323"
	 xml:space="preserve">
<path fill="#EAEAEA" d="M1.991,1.081l-2.805,2.805L-1.63,3.072c-0.349-0.347-0.914-0.347-1.261,0.001
	c-0.35,0.348-0.348,0.914,0,1.261l1.016,1.014c-0.28,0.881-0.073,1.887,0.622,2.583l3.372,3.368
	c0.992,0.992,2.668,2.343,3.725,3.001c1.057,0.661,2.733,0.389,3.724-0.602l1.802-1.801c0.989-0.992,1.243-2.687,0.56-3.768
	c-0.685-1.08-2.057-2.775-3.049-3.767L5.597,1.082C4.604,0.09,2.982,0.09,1.991,1.081z M9.094,11.422
	c-0.39,0.392-1.028,0.392-1.42,0s-0.393-1.026,0-1.419c0.392-0.392,1.027-0.39,1.42,0C9.485,10.395,9.486,11.029,9.094,11.422z
	 M6.744,4.643c0.199,0.198,0.199,0.522,0,0.721L3.033,9.076c-0.198,0.197-0.523,0.197-0.721,0l-2.26-2.259
	c-0.198-0.2-0.198-0.523,0-0.721l3.711-3.712c0.199-0.199,0.522-0.199,0.722,0L6.744,4.643z"/>
</svg>
