<?xml version="1.0" encoding="utf-8"?>
<!-- Generator: Adobe Illustrator 16.0.0, SVG Export Plug-In . SVG Version: 6.00 Build 0)  -->
<!DOCTYPE svg PUBLIC "-//W3C//DTD SVG 1.1//EN" "http://www.w3.org/Graphics/SVG/1.1/DTD/svg11.dtd">
<svg version="1.1" id="Layer_1" xmlns="http://www.w3.org/2000/svg" xmlns:xlink="http://www.w3.org/1999/xlink" x="0px" y="0px"
	 width="16px" height="16px" viewBox="0 0 16 16" enable-background="new 0 0 16 16" xml:space="preserve">
<g>
	<path fill="#EAEAEA" d="M5.859,12.694l-0.81,0.804c-0.702,0.696-1.843,0.696-2.544,0c-0.337-0.334-0.522-0.779-0.522-1.251
		c0-0.472,0.186-0.917,0.522-1.251l2.98-2.957c0.618-0.613,1.779-1.514,2.626-0.674C8.5,7.75,9.128,7.748,9.513,7.359
		c0.386-0.389,0.384-1.017-0.005-1.402C8.069,4.529,5.941,4.793,4.089,6.631l-2.98,2.957C0.394,10.298,0,11.242,0,12.246
		c0,1.005,0.394,1.949,1.109,2.659C1.845,15.635,2.811,16,3.777,16c0.967,0,1.934-0.365,2.669-1.096l0.811-0.804
		c0.388-0.386,0.391-1.013,0.004-1.402C6.876,12.311,6.248,12.308,5.859,12.694z M14.891,1.208
		c-1.546-1.534-3.708-1.617-5.139-0.197L8.743,2.013C8.354,2.399,8.352,3.026,8.738,3.415S9.751,3.806,10.14,3.42l1.009-1.001
		c0.741-0.736,1.712-0.431,2.345,0.197c0.338,0.334,0.523,0.779,0.523,1.251c0,0.473-0.186,0.917-0.522,1.252l-3.179,3.154
		C8.861,9.716,8.179,9.039,7.888,8.75C7.5,8.364,6.873,8.367,6.486,8.755c-0.386,0.388-0.383,1.016,0.005,1.402
		c0.667,0.662,1.429,0.991,2.228,0.991c0.978,0,2.01-0.493,2.993-1.468l3.179-3.153C15.606,5.816,16,4.872,16,3.868
		C16,2.863,15.606,1.919,14.891,1.208z"/>
</g>
</svg>
