<?xml version="1.0" encoding="utf-8"?>
<!-- Generator: Adobe Illustrator 16.0.0, SVG Export Plug-In . SVG Version: 6.00 Build 0)  -->
<!DOCTYPE svg PUBLIC "-//W3C//DTD SVG 1.1//EN" "http://www.w3.org/Graphics/SVG/1.1/DTD/svg11.dtd">
<svg version="1.1" id="Layer_1" xmlns="http://www.w3.org/2000/svg" xmlns:xlink="http://www.w3.org/1999/xlink" x="0px" y="0px"
	 width="12px" height="15px" viewBox="0 0 12 15" enable-background="new 0 0 12 15" xml:space="preserve">
<path fill="#EAEAEA" d="M11.314,15H0.686C0.307,15,0,14.709,0,14.351V7.802c0-0.358,0.307-0.649,0.686-0.649h0.686V4.377
	C1.372,1.96,3.444,0,6,0c2.555,0,4.628,1.96,4.628,4.377v2.775h0.686C11.691,7.152,12,7.443,12,7.802v6.549
	C12,14.709,11.691,15,11.314,15z M8.45,4.507C8.45,3.227,7.353,2.19,6,2.19c-1.354,0-2.45,1.037-2.45,2.316v2.646H8.45V4.507
	L8.45,4.507z"/>
</svg>
