<?xml version="1.0" encoding="utf-8"?>
<!-- Generator: Adobe Illustrator 16.0.0, SVG Export Plug-In . SVG Version: 6.00 Build 0)  -->
<!DOCTYPE svg PUBLIC "-//W3C//DTD SVG 1.1//EN" "http://www.w3.org/Graphics/SVG/1.1/DTD/svg11.dtd">
<svg version="1.1" id="Layer_1" xmlns="http://www.w3.org/2000/svg" xmlns:xlink="http://www.w3.org/1999/xlink" x="0px" y="0px"
	 width="10px" height="10px" viewBox="0 0 10 10" enable-background="new 0 0 10 10" xml:space="preserve">
<g>
	<path fill="#DE5757" d="M2.211,9.788c-0.116,0.116-0.308,0.116-0.424,0L0.212,8.212c-0.116-0.117-0.117-0.308,0-0.424l7.575-7.576
		c0.117-0.116,0.308-0.117,0.424,0l1.576,1.576c0.117,0.117,0.117,0.308,0,0.424L2.211,9.788z"/>
</g>
<g>
	<path fill="#DE5757" d="M9.787,7.789c0.116,0.116,0.116,0.308,0,0.424L8.211,9.789c-0.117,0.117-0.308,0.117-0.424,0L0.212,2.213
		c-0.116-0.117-0.117-0.308,0-0.424l1.576-1.576c0.117-0.116,0.308-0.116,0.424,0L9.787,7.789z"/>
</g>
</svg>
