<?xml version="1.0" encoding="utf-8"?>
<!-- Generator: Adobe Illustrator 15.1.0, SVG Export Plug-In . SVG Version: 6.00 Build 0)  -->
<!DOCTYPE svg PUBLIC "-//W3C//DTD SVG 1.1//EN" "http://www.w3.org/Graphics/SVG/1.1/DTD/svg11.dtd">
<svg version="1.1" id="Layer_1" xmlns="http://www.w3.org/2000/svg" xmlns:xlink="http://www.w3.org/1999/xlink" x="0px" y="0px"
	 width="401.5px" height="120px" viewBox="-110 29.126 401.5 120" enable-background="new -110 29.126 401.5 120"
	 xml:space="preserve">
<g id="Camada_x0020_1">
	<g id="_1150630768">
		<g>
			<path fill="#FEFEFE" d="M70.051,112.272H53.462L41.003,91.615l-12.522,20.656H11.829l20.079-29.496L13.527,55.286H29.57
				l11.402,19.278l11.272-19.278h16.042L50.034,82.713l19.953,29.559H70.051z M103.195,112.366
				c-1.312,0.282-2.658,0.471-4.067,0.627c-1.409,0.156-2.945,0.251-4.611,0.251c-2.882,0-5.285-0.283-7.239-0.813
				c-1.953-0.535-3.554-1.318-4.803-2.321c-1.25-1.002-2.176-2.256-2.818-3.699c-0.641-1.474-1.09-3.134-1.409-4.983
				c-0.319-1.849-0.48-3.888-0.48-6.144c-0.032-2.227-0.032-4.608-0.032-7.147V66.131h-7.557V55.286h7.557v-14.2h15.117v14.2h9.511
				v10.845h-9.511v27.428c0,1.817,0.127,3.322,0.352,4.483c0.257,1.129,0.609,2.037,1.089,2.665
				c0.482,0.657,1.026,1.096,1.699,1.316c0.671,0.25,1.44,0.345,2.306,0.345c1.536,0,3.202-0.096,4.898-0.314v10.28L103.195,112.366
				L103.195,112.366z M134.611,113.59c-4.804,0-9.063-0.69-12.747-2.069c-3.715-1.379-6.852-3.323-9.383-5.894
				c-2.531-2.568-4.451-5.704-5.797-9.373c-1.346-3.697-2.018-7.837-2.018-12.443c0-4.703,0.671-8.87,1.985-12.571
				c1.345-3.667,3.233-6.801,5.733-9.372c2.498-2.539,5.54-4.513,9.126-5.83c3.587-1.318,7.684-2.007,12.298-2.007
				c4.419,0,8.39,0.626,11.944,1.911c3.523,1.288,6.566,3.167,9.095,5.674c2.531,2.507,4.453,5.58,5.798,9.246
				c1.345,3.668,2.017,7.838,2.017,12.506v3.544h-42.494c0.128,2.977,0.576,5.548,1.345,7.711c0.769,2.131,1.793,3.918,3.075,5.298
				c1.249,1.378,2.753,2.412,4.45,3.072c1.699,0.657,3.587,1.003,5.574,1.003c3.14,0,5.797-0.657,7.975-1.974
				c2.176-1.317,3.747-3.605,4.74-6.836h14.123c-0.544,2.948-1.602,5.613-3.138,7.901c-1.537,2.319-3.46,4.262-5.766,5.829
				c-2.306,1.6-4.996,2.759-8.006,3.573c-3.01,0.783-6.34,1.19-9.895,1.19L134.611,113.59z M147.39,77.822
				c-0.577-4.92-2.083-8.587-4.452-11.032c-2.37-2.414-5.412-3.636-9.19-3.636c-3.685,0-6.726,1.223-9.095,3.636
				c-2.37,2.413-3.844,6.111-4.452,11.032h27.158H147.39z M196.388,113.59c-4.579,0-8.614-0.658-12.233-1.976
				c-3.588-1.316-6.628-3.259-9.128-5.829c-2.497-2.539-4.418-5.673-5.764-9.373c-1.345-3.699-2.018-7.899-2.018-12.633
				s0.673-8.965,2.018-12.664c1.346-3.73,3.266-6.833,5.764-9.373c2.499-2.539,5.54-4.482,9.128-5.767
				C187.74,54.658,191.809,54,196.388,54c3.459,0,6.629,0.439,9.574,1.287c2.915,0.847,5.477,2.132,7.622,3.823
				c2.178,1.693,3.972,3.763,5.285,6.269c1.345,2.478,2.178,5.298,2.562,8.558h-13.994c-0.418-2.759-1.569-4.952-3.522-6.583
				c-1.953-1.661-4.451-2.476-7.526-2.476c-2.081,0-3.972,0.376-5.636,1.129c-1.697,0.753-3.14,1.912-4.355,3.479
				c-1.218,1.536-2.146,3.51-2.786,5.893c-0.673,2.382-0.994,5.203-0.994,8.464c0,3.229,0.319,6.017,0.994,8.4
				c0.64,2.383,1.568,4.326,2.786,5.894c1.216,1.567,2.656,2.728,4.355,3.511c1.695,0.784,3.587,1.161,5.636,1.161
				c1.473,0,2.851-0.188,4.132-0.626c1.312-0.408,2.434-1.006,3.426-1.819c0.96-0.784,1.762-1.757,2.372-2.854
				c0.573-1.128,0.958-2.351,1.151-3.76h13.995c-0.415,3.134-1.312,5.955-2.69,8.4c-1.345,2.477-3.106,4.545-5.252,6.269
				c-2.178,1.726-4.675,3.01-7.59,3.918c-2.913,0.908-6.085,1.317-9.512,1.317L196.388,113.59z M242.63,50.708
				c0,1.944-0.03,3.886-0.095,5.893c-0.064,1.976-0.129,3.887-0.225,5.706c5.283-5.548,11.24-8.338,17.899-8.338
				c13.291,0,19.92,7.021,19.92,21.033v37.271h-15.114V76.194c0-3.949-0.705-6.772-2.049-8.497
				c-1.345-1.754-3.618-2.633-6.727-2.633c-2.305,0-4.578,0.691-6.884,2.007c-2.274,1.316-4.517,3.292-6.726,5.86v39.34h-15.116
				V33.469h15.116L242.63,50.708L242.63,50.708z"/>
			<path fill="#FEFEFE" d="M17.881,141.455c-1.216,0-2.242-0.218-3.105-0.626c-0.865-0.408-1.506-1.036-1.954-1.817
				c-0.448-0.815-0.64-1.788-0.64-2.948c0-1.159,0.257-2.476,0.769-3.98c0.513-1.474,1.153-2.79,1.922-3.949
				c0.799-1.161,1.665-2.132,2.657-2.946c0.994-0.814,2.05-1.411,3.171-1.817c1.153-0.438,2.338-0.628,3.556-0.628
				c0.927,0,1.76,0.127,2.465,0.377c0.704,0.252,1.281,0.627,1.729,1.098c0.449,0.47,0.736,1.097,0.897,1.817
				c0.128,0.721,0.128,1.567-0.096,2.476h-3.17c0.161-0.532,0.191-1.002,0.161-1.409c-0.064-0.408-0.224-0.752-0.448-1.035
				c-0.256-0.283-0.577-0.47-0.992-0.625c-0.417-0.157-0.866-0.22-1.378-0.22c-0.737,0-1.441,0.156-2.146,0.439
				c-0.704,0.28-1.376,0.722-2.018,1.284c-0.64,0.565-1.217,1.286-1.761,2.164c-0.543,0.845-0.993,1.847-1.376,2.977
				c-0.384,1.129-0.61,2.13-0.674,2.978s0.032,1.568,0.29,2.163c0.224,0.563,0.608,1.005,1.12,1.285
				c0.513,0.283,1.121,0.441,1.857,0.441c0.48,0,0.994-0.064,1.473-0.19c0.513-0.126,0.962-0.344,1.41-0.595
				c0.448-0.283,0.833-0.596,1.185-1.003c0.352-0.409,0.641-0.878,0.833-1.409h3.171c-0.45,0.938-0.994,1.785-1.635,2.507
				c-0.641,0.72-1.345,1.317-2.113,1.787c-0.77,0.47-1.602,0.847-2.498,1.097c-0.897,0.25-1.793,0.377-2.691,0.377L17.881,141.455z
				 M57.048,122.742c1.249,0,2.306,0.221,3.171,0.628c0.864,0.438,1.505,1.034,1.92,1.849c0.449,0.814,0.641,1.786,0.609,2.946
				c-0.033,1.16-0.288,2.477-0.77,3.918c-0.511,1.473-1.153,2.821-1.952,3.98c-0.769,1.16-1.667,2.131-2.659,2.948
				c-0.993,0.814-2.049,1.409-3.203,1.817c-1.152,0.439-2.337,0.626-3.554,0.626c-1.217,0-2.242-0.218-3.107-0.626
				s-1.504-1.036-1.954-1.817c-0.448-0.815-0.639-1.788-0.639-2.948c0-1.159,0.256-2.476,0.769-3.98
				c0.513-1.474,1.154-2.79,1.922-3.949c0.8-1.161,1.666-2.132,2.657-2.946c0.994-0.814,2.05-1.411,3.171-1.817
				c1.154-0.438,2.338-0.628,3.556-0.628H57.048L57.048,122.742z M51.506,138.95c0.738,0,1.441-0.158,2.147-0.441
				c0.706-0.28,1.377-0.722,1.986-1.285c0.64-0.565,1.216-1.285,1.729-2.163c0.545-0.848,0.992-1.849,1.377-2.978
				c0.385-1.129,0.608-2.132,0.672-2.977c0.064-0.848-0.032-1.568-0.287-2.164c-0.224-0.562-0.609-1.004-1.121-1.284
				c-0.512-0.283-1.121-0.439-1.858-0.439c-0.735,0-1.44,0.156-2.145,0.439c-0.706,0.28-1.377,0.722-2.018,1.284
				c-0.641,0.565-1.217,1.286-1.762,2.164c-0.544,0.845-0.991,1.848-1.376,2.977c-0.384,1.129-0.608,2.13-0.671,2.978
				c-0.064,0.848,0.032,1.568,0.288,2.163c0.224,0.563,0.608,1.005,1.121,1.285c0.512,0.283,1.121,0.441,1.856,0.441H51.506z
				 M101.819,141.019h-3.107l3.938-11.537c0.256-0.752,0.418-1.379,0.513-1.911c0.096-0.534,0.064-0.94-0.032-1.287
				c-0.097-0.345-0.289-0.563-0.577-0.72c-0.289-0.157-0.671-0.22-1.153-0.22c-1.505,0-3.299,0.939-5.412,2.854l-4.388,12.789H88.59
				l3.941-11.536c0.256-0.751,0.416-1.378,0.512-1.911c0.065-0.534,0.065-0.939-0.032-1.288c-0.097-0.343-0.32-0.562-0.609-0.72
				c-0.288-0.156-0.671-0.218-1.153-0.218c-1.473,0-3.266,0.938-5.38,2.852l-4.386,12.79h-3.075l6.116-17.836h3.076l-0.77,2.256
				c2.113-1.785,4.036-2.697,5.798-2.697c2.53,0,3.778,1.098,3.747,3.261c0.833-0.72,1.568-1.285,2.177-1.723
				c0.608-0.44,1.185-0.753,1.665-1.004c0.481-0.218,0.929-0.376,1.345-0.438c0.385-0.063,0.801-0.096,1.185-0.096
				c3.554,0,4.58,2.195,3.075,6.614l-4.002,11.693V141.019z M145.691,141.019h-3.105l3.938-11.537
				c0.256-0.752,0.416-1.379,0.513-1.911c0.095-0.534,0.062-0.94-0.032-1.287c-0.096-0.345-0.288-0.563-0.576-0.72
				c-0.288-0.157-0.673-0.22-1.153-0.22c-1.505,0-3.298,0.939-5.413,2.854l-4.387,12.789h-3.012l3.94-11.536
				c0.256-0.751,0.417-1.378,0.513-1.911c0.063-0.534,0.063-0.939-0.032-1.288c-0.096-0.343-0.32-0.562-0.609-0.72
				c-0.288-0.156-0.671-0.218-1.152-0.218c-1.473,0-3.266,0.938-5.381,2.852l-4.387,12.79h-3.074l6.117-17.836h3.073l-0.768,2.256
				c2.113-1.785,4.035-2.697,5.797-2.697c2.53,0,3.779,1.098,3.747,3.261c0.832-0.72,1.57-1.285,2.176-1.723
				c0.61-0.44,1.186-0.753,1.667-1.004c0.479-0.218,0.929-0.376,1.344-0.438c0.383-0.063,0.801-0.096,1.185-0.096
				c3.555,0,4.579,2.195,3.074,6.614l-4.003,11.693L145.691,141.019L145.691,141.019z M173.36,141.455
				c-1.249,0-2.337-0.218-3.232-0.626c-0.897-0.408-1.57-1.036-2.05-1.817c-0.479-0.815-0.706-1.788-0.706-2.948
				c0-1.159,0.259-2.476,0.738-3.98c0.511-1.442,1.152-2.759,1.954-3.918c0.8-1.16,1.664-2.131,2.657-2.946
				c0.993-0.814,2.082-1.41,3.202-1.849c1.153-0.438,2.305-0.659,3.523-0.659c1.248,0,2.305,0.221,3.169,0.628
				c0.867,0.438,1.505,1.034,1.924,1.849c0.447,0.813,0.639,1.785,0.606,2.946c-0.031,1.16-0.287,2.476-0.768,3.917l-0.258,0.754
				h-13.034c-0.287,1.034-0.415,1.943-0.384,2.695c0.032,0.751,0.192,1.41,0.481,1.912c0.287,0.5,0.704,0.878,1.216,1.129
				c0.513,0.251,1.152,0.376,1.856,0.376c0.514,0,1.026-0.062,1.603-0.219c0.543-0.126,1.09-0.344,1.569-0.626
				c0.511-0.284,0.96-0.627,1.346-1.034c0.384-0.408,0.671-0.878,0.864-1.381h3.233c-0.447,0.91-0.993,1.757-1.665,2.445
				c-0.672,0.72-1.439,1.318-2.241,1.819c-0.833,0.47-1.73,0.848-2.658,1.128c-0.962,0.251-1.923,0.377-2.883,0.377L173.36,141.455z
				 M181.72,130.359c0.159-0.848,0.191-1.599,0.127-2.226c-0.063-0.626-0.223-1.161-0.511-1.598
				c-0.288-0.441-0.641-0.754-1.119-0.973c-0.481-0.22-1.027-0.345-1.635-0.345c-0.609,0-1.25,0.095-1.856,0.312
				c-0.61,0.22-1.188,0.532-1.764,0.941c-0.577,0.438-1.121,0.971-1.634,1.598c-0.512,0.628-0.993,1.379-1.408,2.258h9.768
				L181.72,130.359z M214.896,126.063c-0.383-0.155-0.993-0.218-1.793-0.218c-0.801,0-1.603,0.218-2.435,0.628
				c-0.799,0.438-1.633,1.065-2.529,1.911l-4.323,12.634h-3.074l6.116-17.836h3.075l-0.833,2.443
				c1.985-1.943,3.811-2.916,5.54-2.916c0.191,0,0.416,0,0.639,0.031c0.226,0.032,0.45,0.063,0.707,0.127L214.896,126.063z
				 M234.784,141.455c-1.219,0-2.243-0.218-3.106-0.626c-0.865-0.408-1.504-1.036-1.954-1.817c-0.449-0.815-0.64-1.788-0.64-2.948
				c0-1.159,0.256-2.476,0.768-3.98c0.514-1.474,1.152-2.79,1.922-3.949c0.801-1.161,1.665-2.132,2.658-2.946
				c0.992-0.814,2.049-1.411,3.17-1.817c1.154-0.438,2.338-0.628,3.556-0.628c0.93,0,1.761,0.127,2.465,0.377
				c0.705,0.252,1.282,0.627,1.729,1.098c0.45,0.47,0.737,1.097,0.896,1.817c0.128,0.721,0.128,1.567-0.096,2.476h-3.171
				c0.16-0.532,0.19-1.002,0.16-1.409c-0.063-0.408-0.225-0.752-0.448-1.035c-0.257-0.283-0.576-0.47-0.993-0.625
				c-0.416-0.157-0.866-0.22-1.377-0.22c-0.737,0-1.442,0.156-2.146,0.439c-0.706,0.28-1.378,0.722-2.019,1.284
				c-0.64,0.565-1.216,1.286-1.762,2.164c-0.545,0.845-0.993,1.847-1.377,2.977c-0.384,1.129-0.609,2.13-0.673,2.978
				c-0.062,0.848,0.031,1.568,0.289,2.163c0.224,0.563,0.607,1.005,1.121,1.285c0.511,0.283,1.121,0.441,1.856,0.441
				c0.48,0,0.994-0.064,1.473-0.19c0.513-0.126,0.962-0.344,1.41-0.595c0.447-0.283,0.832-0.596,1.186-1.003
				c0.353-0.409,0.641-0.878,0.832-1.409h3.171c-0.447,0.938-0.992,1.785-1.632,2.507c-0.642,0.72-1.347,1.317-2.116,1.787
				c-0.768,0.47-1.602,0.847-2.497,1.097c-0.896,0.25-1.795,0.377-2.692,0.377L234.784,141.455z M267.864,141.455
				c-1.248,0-2.336-0.218-3.234-0.626c-0.895-0.408-1.567-1.036-2.048-1.817c-0.479-0.815-0.705-1.788-0.705-2.948
				c0-1.159,0.256-2.476,0.738-3.98c0.51-1.442,1.152-2.759,1.951-3.918c0.802-1.16,1.668-2.131,2.659-2.946
				c0.992-0.814,2.08-1.41,3.2-1.849c1.153-0.438,2.307-0.659,3.523-0.659c1.248,0,2.305,0.221,3.172,0.628
				c0.864,0.438,1.504,1.034,1.921,1.849c0.448,0.813,0.641,1.785,0.608,2.946c-0.032,1.16-0.288,2.476-0.77,3.917l-0.256,0.754
				h-13.033c-0.289,1.034-0.416,1.943-0.385,2.695c0.032,0.751,0.19,1.41,0.479,1.912c0.29,0.5,0.705,0.878,1.217,1.129
				c0.513,0.251,1.153,0.376,1.858,0.376c0.511,0,1.024-0.062,1.601-0.219c0.544-0.126,1.089-0.344,1.57-0.626
				c0.512-0.284,0.958-0.627,1.344-1.034c0.386-0.408,0.671-0.878,0.864-1.381h3.234c-0.447,0.91-0.993,1.757-1.664,2.445
				c-0.673,0.72-1.442,1.318-2.242,1.819c-0.833,0.47-1.729,0.848-2.657,1.128c-0.961,0.251-1.922,0.377-2.883,0.377
				L267.864,141.455z M276.224,130.359c0.16-0.848,0.192-1.599,0.128-2.226c-0.063-0.626-0.223-1.161-0.512-1.598
				c-0.289-0.441-0.641-0.754-1.121-0.973c-0.479-0.22-1.024-0.345-1.635-0.345c-0.605,0-1.248,0.095-1.856,0.312
				c-0.607,0.22-1.184,0.532-1.761,0.941c-0.576,0.438-1.122,0.971-1.633,1.598c-0.512,0.628-0.994,1.379-1.409,2.258h9.767
				L276.224,130.359z"/>
		</g>
	</g>
</g>
<g>
	<polygon fill-rule="evenodd" clip-rule="evenodd" fill="#FFFFFF" points="-43.874,55.402 -16.72,55.657 -9.314,53.569 
		-36.254,53.554 	"/>
	<polygon fill-rule="evenodd" clip-rule="evenodd" fill="#FFFFFF" points="-96.855,55.097 -85.406,53.518 -58.915,53.57 
		-71.428,55.177 	"/>
	<polygon fill-rule="evenodd" clip-rule="evenodd" fill="#FFFFFF" points="-15.202,56.41 -42.858,97.37 -17.58,146.397 
		-7.354,141.235 -34.714,96.886 -8.708,54.195 	"/>
	<path fill-rule="evenodd" clip-rule="evenodd" fill="#FFFFFF" d="M-103.48,137.985l23.719,2.878l16.453-31.439l13.89,34.54
		l30.129,3.319l-25.856-49.595l28.138-41.329l-27.71-0.296l-14.745,28.119l-11.324-28.199l-26.187-0.161l20.845,39.431
		L-103.48,137.985L-103.48,137.985z M-34.173,59.402c1.484,0,2.687,1.247,2.687,2.784s-1.203,2.783-2.687,2.783
		c-1.484,0-2.687-1.246-2.687-2.783S-35.657,59.402-34.173,59.402L-34.173,59.402z M-81.188,58.408c1.484,0,2.687,1.247,2.687,2.783
		c0,1.538-1.203,2.784-2.687,2.784c-1.483,0-2.687-1.246-2.687-2.784C-83.875,59.654-82.671,58.408-81.188,58.408z"/>
	<path fill-rule="evenodd" clip-rule="evenodd" fill="#FFFFFF" d="M-71.914,54.062c1.779-8.821,7.383-15.265,14.088-18.604
		c3.423-1.704,7.141-2.599,10.786-2.589c3.665,0.01,7.258,0.934,10.414,2.868c5.243,3.21,9.27,9.192,10.4,18.375l-1.399,0.153
		c-1.073-8.734-4.849-14.389-9.755-17.393c-2.924-1.791-6.257-2.647-9.66-2.656c-3.418-0.01-6.912,0.833-10.142,2.441
		c-6.35,3.161-11.659,9.277-13.352,17.658L-71.914,54.062z"/>
	<polygon fill-rule="evenodd" clip-rule="evenodd" fill="#FFFFFF" points="-63.308,113.186 -76.556,138.207 -64.803,130.015 
		-60.102,121.158 	"/>
	<path fill-rule="evenodd" clip-rule="evenodd" fill="#FFFFFF" d="M-81.819,61.619c1.544-13.485,7.938-23.079,15.578-27.642
		c3.332-1.989,6.908-3.027,10.428-3.019c3.535,0.009,7.014,1.07,10.136,3.275c6.38,4.509,11.265,13.812,12.07,28.695l-1.312,0.074
		c-0.779-14.415-5.434-23.37-11.505-27.66c-2.896-2.045-6.118-3.03-9.39-3.037c-3.287-0.008-6.637,0.968-9.77,2.838
		c-7.314,4.368-13.438,13.604-14.93,26.628L-81.819,61.619z"/>
	<polygon fill-rule="evenodd" clip-rule="evenodd" fill="#FFFFFF" points="-69.077,55.841 -57.841,54.255 -52.535,67.509 
		-59.247,80.196 	"/>
</g>
</svg>
