<?xml version="1.0" encoding="utf-8"?>
<!-- Generator: Adobe Illustrator 15.1.0, SVG Export Plug-In . SVG Version: 6.00 Build 0)  -->
<!DOCTYPE svg PUBLIC "-//W3C//DTD SVG 1.1//EN" "http://www.w3.org/Graphics/SVG/1.1/DTD/svg11.dtd">
<svg version="1.1" id="Layer_1" xmlns="http://www.w3.org/2000/svg" xmlns:xlink="http://www.w3.org/1999/xlink" x="0px" y="0px"
	 width="97.377px" height="29.647px" viewBox="0 0 97.377 29.647" enable-background="new 0 0 97.377 29.647" xml:space="preserve">
<g>
	<g>
		<path fill-rule="evenodd" clip-rule="evenodd" fill="#FFFFFF" d="M33.817,11.52l-3.265-0.003l-0.016,18.07l-3.529-0.003
			l0.017-18.07l-2.471-0.002l0.003-3.176l2.47,0.002L27.034,0l3.529,0.003l-0.007,8.338l3.264,0.003L33.817,11.52L33.817,11.52z
			 M52.003,16.698c-0.183-1.765-0.843-3.14-1.975-4.126c-1.131-0.986-2.601-1.48-4.41-1.482c-1.735-0.001-3.207,0.504-4.413,1.518
			c-1.2,1.006-1.914,2.366-2.129,4.079L52.003,16.698L52.003,16.698z M55.529,19.217l-16.543-0.016
			c0.13,2.221,0.783,3.949,1.966,5.178c1.183,1.229,2.763,1.841,4.741,1.843c1.507,0.001,2.787-0.292,3.839-0.886
			c1.052-0.595,1.891-1.492,2.509-2.682l2.962,1.554c-0.95,1.794-2.208,3.138-3.783,4.048c-1.574,0.91-3.435,1.364-5.574,1.362
			c-3.103-0.002-5.58-1.02-7.423-3.043s-2.768-4.708-2.765-8.039c0.003-3.095,0.983-5.675,2.941-7.725
			c1.958-2.049,4.363-3.077,7.223-3.074c2.934,0.003,5.315,0.946,7.159,2.83c1.837,1.884,2.754,4.355,2.75,7.414L55.529,19.217
			L55.529,19.217z M76.08,28.14c-0.935,0.506-1.949,0.88-3.038,1.129c-1.096,0.249-2.258,0.373-3.493,0.372
			c-3.286-0.004-5.977-1.021-8.07-3.052c-2.086-2.038-3.128-4.657-3.124-7.855c0.002-3.235,1.078-5.867,3.228-7.916
			c2.148-2.042,4.921-3.062,8.325-3.059c1.184,0.001,2.25,0.12,3.213,0.349c0.963,0.229,1.867,0.582,2.712,1.054l-0.004,3.765
			c-0.814-0.575-1.733-1.024-2.763-1.341c-1.021-0.317-2.029-0.472-3.021-0.473c-2.441-0.002-4.397,0.702-5.884,2.104
			c-1.487,1.411-2.231,3.292-2.233,5.646c-0.002,2.197,0.746,3.978,2.245,5.34c1.499,1.361,3.454,2.04,5.865,2.042
			c1.147,0,2.243-0.16,3.302-0.482c1.052-0.322,1.972-0.777,2.744-1.365L76.08,28.14L76.08,28.14z M97.364,29.647l-3.529-0.003
			l0.012-12.938c0.002-2-0.35-3.463-1.062-4.398c-0.712-0.934-1.837-1.398-3.388-1.4c-1.766-0.001-3.111,0.696-4.039,2.084
			s-1.393,3.432-1.396,6.116l-0.009,10.526l-3.529-0.004l0.027-29.601l3.529,0.003L83.97,11.441c0.618-1.22,1.479-2.138,2.583-2.748
			c1.11-0.609,2.457-0.917,4.053-0.916c2.109,0.002,3.766,0.701,4.968,2.093c1.207,1.396,1.806,3.355,1.804,5.87L97.364,29.647z"/>
		<polygon fill-rule="evenodd" clip-rule="evenodd" fill="#FFFFFF" points="23.888,29.581 16.433,29.574 11.875,22.702 
			7.305,29.565 0,29.56 8.042,18.361 1.018,8.294 8.253,8.301 11.814,13.896 15.419,8.307 22.892,8.314 15.716,18.368 		"/>
	</g>
</g>
</svg>
