<?xml version="1.0" encoding="utf-8"?>
<!-- Generator: Adobe Illustrator 15.1.0, SVG Export Plug-In . SVG Version: 6.00 Build 0)  -->
<!DOCTYPE svg PUBLIC "-//W3C//DTD SVG 1.1//EN" "http://www.w3.org/Graphics/SVG/1.1/DTD/svg11.dtd">
<svg version="1.1" id="Layer_1" xmlns="http://www.w3.org/2000/svg" xmlns:xlink="http://www.w3.org/1999/xlink" x="0px" y="0px"
	 width="300px" height="179.252px" viewBox="0 0 300 179.252" enable-background="new 0 0 300 179.252" xml:space="preserve">
<g id="Camada_x0020_1">
	<g id="_1150630768">
		<g>
			<path fill="#FEFEFE" d="M143.389,104.636h-11.649l-8.748-14.819l-8.793,14.819h-11.694l14.1-21.161l-12.908-19.722h11.266
				l8.006,13.83l7.916-13.83h11.266L129.333,83.43l14.011,21.206H143.389z M166.664,104.704c-0.922,0.202-1.867,0.337-2.856,0.449
				s-2.068,0.18-3.238,0.18c-2.023,0-3.711-0.202-5.083-0.584c-1.371-0.383-2.496-0.945-3.373-1.664
				c-0.877-0.72-1.528-1.619-1.979-2.654c-0.45-1.057-0.765-2.248-0.989-3.575s-0.338-2.789-0.338-4.408
				c-0.022-1.597-0.022-3.306-0.022-5.127V71.533h-5.307v-7.78h5.307V53.565H159.4v10.188h6.679v7.78H159.4v19.678
				c0,1.304,0.09,2.383,0.247,3.216c0.181,0.81,0.428,1.462,0.765,1.912c0.338,0.472,0.72,0.787,1.192,0.944
				c0.472,0.18,1.012,0.247,1.619,0.247c1.079,0,2.248-0.067,3.44-0.225v7.376V104.704z M188.726,105.581
				c-3.374,0-6.365-0.495-8.951-1.484c-2.608-0.989-4.812-2.384-6.589-4.228s-3.126-4.093-4.07-6.725
				c-0.945-2.653-1.417-5.622-1.417-8.928c0-3.374,0.472-6.364,1.395-9.019c0.944-2.631,2.271-4.879,4.025-6.724
				c1.754-1.821,3.891-3.237,6.409-4.183s5.396-1.439,8.636-1.439c3.104,0,5.892,0.449,8.388,1.371
				c2.474,0.924,4.61,2.271,6.387,4.071c1.777,1.799,3.127,4.003,4.071,6.634s1.416,5.623,1.416,8.973v2.542h-29.842
				c0.09,2.136,0.404,3.98,0.944,5.531c0.54,1.529,1.259,2.812,2.159,3.802c0.877,0.989,1.934,1.731,3.125,2.204
				c1.192,0.472,2.519,0.719,3.914,0.719c2.204,0,4.07-0.472,5.6-1.416c1.528-0.944,2.631-2.587,3.328-4.903h9.917
				c-0.382,2.114-1.124,4.026-2.203,5.668c-1.08,1.664-2.43,3.058-4.049,4.183c-1.619,1.146-3.508,1.979-5.622,2.563
				c-2.113,0.562-4.452,0.854-6.948,0.854L188.726,105.581z M197.698,79.921c-0.405-3.53-1.462-6.161-3.126-7.915
				c-1.664-1.731-3.801-2.608-6.454-2.608c-2.587,0-4.723,0.877-6.387,2.608s-2.699,4.385-3.126,7.915h19.07H197.698z
				 M232.105,105.581c-3.216,0-6.05-0.473-8.591-1.417c-2.519-0.944-4.654-2.339-6.409-4.183c-1.754-1.821-3.104-4.07-4.048-6.725
				c-0.944-2.653-1.417-5.667-1.417-9.062c0-3.396,0.473-6.432,1.417-9.086c0.944-2.676,2.294-4.902,4.048-6.724
				c1.755-1.821,3.891-3.216,6.409-4.138c2.519-0.945,5.375-1.417,8.591-1.417c2.429,0,4.655,0.315,6.724,0.923
				c2.047,0.607,3.846,1.529,5.353,2.742c1.529,1.215,2.789,2.699,3.711,4.498c0.944,1.777,1.529,3.801,1.799,6.14h-9.827
				c-0.293-1.979-1.103-3.553-2.474-4.723c-1.372-1.191-3.126-1.776-5.285-1.776c-1.462,0-2.789,0.27-3.958,0.81
				c-1.192,0.54-2.204,1.372-3.059,2.496c-0.854,1.102-1.507,2.519-1.956,4.228c-0.473,1.709-0.697,3.732-0.697,6.072
				c0,2.316,0.225,4.317,0.697,6.026c0.449,1.709,1.102,3.104,1.956,4.229c0.854,1.124,1.866,1.957,3.059,2.519
				c1.191,0.562,2.519,0.832,3.958,0.832c1.034,0,2.002-0.135,2.901-0.449c0.922-0.292,1.709-0.72,2.406-1.305
				c0.674-0.562,1.236-1.26,1.664-2.047c0.404-0.81,0.674-1.687,0.81-2.698h9.827c-0.292,2.248-0.922,4.272-1.889,6.027
				c-0.944,1.776-2.183,3.261-3.688,4.497c-1.529,1.237-3.283,2.159-5.33,2.812c-2.046,0.651-4.272,0.944-6.679,0.944
				L232.105,105.581z M264.579,60.469c0,1.395-0.022,2.788-0.067,4.228c-0.045,1.418-0.09,2.789-0.157,4.094
				c3.71-3.98,7.893-5.982,12.57-5.982c9.333,0,13.987,5.037,13.987,15.09v26.738h-10.613V78.753c0-2.834-0.495-4.858-1.439-6.096
				c-0.944-1.259-2.541-1.889-4.724-1.889c-1.619,0-3.215,0.495-4.834,1.439c-1.597,0.944-3.171,2.361-4.723,4.205v28.223h-10.615
				V48.101h10.615V60.469z"/>
			<path fill="#FEFEFE" d="M106.754,125.573c-0.854,0-1.574-0.157-2.181-0.449c-0.607-0.293-1.058-0.743-1.372-1.305
				c-0.315-0.585-0.45-1.282-0.45-2.114s0.18-1.776,0.54-2.856c0.36-1.057,0.81-2.001,1.35-2.833
				c0.562-0.832,1.169-1.529,1.866-2.113c0.697-0.585,1.439-1.013,2.227-1.305c0.81-0.314,1.642-0.45,2.497-0.45
				c0.651,0,1.236,0.091,1.731,0.271c0.494,0.18,0.899,0.449,1.214,0.787c0.315,0.337,0.518,0.787,0.63,1.304
				c0.09,0.518,0.09,1.125-0.067,1.776h-2.227c0.112-0.382,0.135-0.719,0.112-1.012c-0.045-0.292-0.157-0.539-0.314-0.742
				c-0.18-0.202-0.405-0.337-0.697-0.449s-0.607-0.157-0.967-0.157c-0.518,0-1.012,0.112-1.507,0.314
				c-0.494,0.202-0.967,0.518-1.417,0.922c-0.449,0.405-0.854,0.922-1.236,1.552c-0.382,0.607-0.697,1.326-0.967,2.136
				s-0.428,1.529-0.473,2.137s0.022,1.124,0.203,1.552c0.157,0.404,0.427,0.72,0.786,0.922c0.36,0.202,0.787,0.315,1.305,0.315
				c0.337,0,0.697-0.046,1.034-0.136c0.36-0.09,0.675-0.247,0.99-0.427c0.315-0.203,0.585-0.428,0.832-0.72
				c0.248-0.293,0.45-0.63,0.585-1.012h2.227c-0.315,0.674-0.697,1.281-1.147,1.799c-0.449,0.517-0.944,0.944-1.484,1.282
				c-0.54,0.337-1.125,0.607-1.754,0.787c-0.63,0.18-1.26,0.27-1.89,0.27L106.754,125.573z M134.258,112.147
				c0.877,0,1.619,0.158,2.227,0.45c0.606,0.314,1.057,0.742,1.349,1.327c0.315,0.584,0.45,1.281,0.428,2.113
				s-0.202,1.776-0.54,2.811c-0.359,1.058-0.81,2.024-1.371,2.856c-0.54,0.832-1.17,1.529-1.867,2.114
				c-0.696,0.584-1.439,1.012-2.249,1.305c-0.81,0.314-1.642,0.449-2.496,0.449s-1.574-0.157-2.182-0.449
				c-0.607-0.293-1.057-0.743-1.372-1.305c-0.314-0.585-0.449-1.282-0.449-2.114s0.18-1.776,0.54-2.856
				c0.36-1.057,0.81-2.001,1.349-2.833c0.562-0.832,1.17-1.529,1.866-2.113c0.697-0.585,1.439-1.013,2.227-1.305
				c0.81-0.314,1.642-0.45,2.497-0.45H134.258z M130.367,123.774c0.518,0,1.013-0.113,1.507-0.315s0.967-0.518,1.395-0.922
				c0.449-0.405,0.854-0.922,1.214-1.552c0.383-0.607,0.697-1.327,0.968-2.137c0.27-0.81,0.427-1.528,0.472-2.136
				s-0.022-1.124-0.202-1.552c-0.157-0.404-0.428-0.72-0.787-0.922c-0.36-0.202-0.787-0.314-1.305-0.314
				c-0.517,0-1.012,0.112-1.506,0.314c-0.495,0.202-0.967,0.518-1.417,0.922c-0.45,0.405-0.854,0.922-1.237,1.552
				c-0.382,0.607-0.696,1.326-0.967,2.136c-0.27,0.81-0.427,1.529-0.472,2.137s0.022,1.124,0.202,1.552
				c0.157,0.404,0.427,0.72,0.787,0.922c0.359,0.202,0.787,0.315,1.304,0.315H130.367z M165.697,125.259h-2.182l2.766-8.276
				c0.18-0.539,0.293-0.989,0.36-1.371c0.067-0.383,0.045-0.675-0.022-0.923c-0.067-0.247-0.203-0.404-0.405-0.517
				s-0.472-0.157-0.81-0.157c-1.057,0-2.316,0.674-3.8,2.046l-3.081,9.176h-2.115l2.768-8.276c0.18-0.539,0.292-0.989,0.359-1.371
				c0.045-0.383,0.045-0.675-0.022-0.923c-0.067-0.247-0.225-0.404-0.428-0.517c-0.202-0.112-0.472-0.157-0.81-0.157
				c-1.034,0-2.294,0.674-3.778,2.046l-3.08,9.176h-2.159l4.295-12.796h2.159l-0.54,1.619c1.484-1.282,2.834-1.935,4.071-1.935
				c1.776,0,2.653,0.787,2.631,2.339c0.585-0.517,1.102-0.922,1.529-1.236c0.427-0.315,0.832-0.54,1.169-0.72
				c0.338-0.157,0.652-0.27,0.944-0.315c0.271-0.045,0.562-0.067,0.832-0.067c2.496,0,3.216,1.574,2.159,4.745l-2.811,8.389V125.259
				z M196.506,125.259h-2.181l2.766-8.276c0.18-0.539,0.292-0.989,0.359-1.371c0.067-0.383,0.045-0.675-0.022-0.923
				c-0.067-0.247-0.202-0.404-0.404-0.517s-0.473-0.157-0.81-0.157c-1.057,0-2.316,0.674-3.801,2.046l-3.081,9.176h-2.114
				l2.767-8.276c0.181-0.539,0.293-0.989,0.36-1.371c0.045-0.383,0.045-0.675-0.022-0.923c-0.067-0.247-0.225-0.404-0.428-0.517
				c-0.202-0.112-0.472-0.157-0.81-0.157c-1.034,0-2.294,0.674-3.778,2.046l-3.081,9.176h-2.158l4.295-12.796h2.158l-0.539,1.619
				c1.484-1.282,2.834-1.935,4.071-1.935c1.776,0,2.653,0.787,2.631,2.339c0.584-0.517,1.102-0.922,1.528-1.236
				c0.428-0.315,0.832-0.54,1.17-0.72c0.337-0.157,0.652-0.27,0.944-0.315c0.27-0.045,0.562-0.067,0.832-0.067
				c2.496,0,3.216,1.574,2.159,4.745l-2.812,8.389V125.259z M215.936,125.573c-0.877,0-1.642-0.157-2.271-0.449
				c-0.63-0.293-1.103-0.743-1.439-1.305c-0.337-0.585-0.495-1.282-0.495-2.114s0.181-1.776,0.518-2.856
				c0.359-1.034,0.81-1.979,1.372-2.811c0.562-0.832,1.169-1.529,1.866-2.113c0.697-0.585,1.462-1.013,2.249-1.327
				c0.81-0.314,1.619-0.473,2.474-0.473c0.877,0,1.619,0.158,2.227,0.45c0.607,0.314,1.057,0.742,1.35,1.327
				c0.314,0.584,0.449,1.281,0.427,2.113s-0.202,1.776-0.539,2.811l-0.181,0.54h-9.153c-0.202,0.742-0.292,1.395-0.27,1.934
				c0.022,0.54,0.135,1.013,0.338,1.372c0.202,0.359,0.494,0.63,0.854,0.81c0.359,0.18,0.809,0.27,1.304,0.27
				c0.36,0,0.72-0.045,1.125-0.157c0.382-0.09,0.765-0.247,1.103-0.449c0.359-0.203,0.674-0.45,0.944-0.742
				c0.27-0.293,0.472-0.63,0.607-0.99h2.271c-0.314,0.652-0.697,1.26-1.169,1.755c-0.473,0.517-1.012,0.944-1.574,1.305
				c-0.585,0.337-1.215,0.607-1.867,0.81c-0.675,0.18-1.35,0.27-2.024,0.27L215.936,125.573z M221.806,117.612
				c0.112-0.607,0.135-1.146,0.09-1.597c-0.045-0.449-0.157-0.832-0.359-1.146c-0.202-0.315-0.45-0.54-0.787-0.697
				s-0.72-0.247-1.146-0.247c-0.428,0-0.878,0.067-1.305,0.225c-0.428,0.157-0.833,0.382-1.237,0.675
				c-0.405,0.314-0.787,0.696-1.147,1.146c-0.359,0.45-0.697,0.989-0.989,1.619h6.859L221.806,117.612z M245.104,114.531
				c-0.27-0.112-0.697-0.157-1.26-0.157c-0.562,0-1.124,0.157-1.709,0.45c-0.562,0.314-1.146,0.765-1.776,1.371l-3.035,9.063h-2.159
				l4.295-12.796h2.159l-0.585,1.754c1.395-1.395,2.676-2.092,3.891-2.092c0.135,0,0.292,0,0.449,0.022
				c0.158,0.022,0.315,0.046,0.495,0.091L245.104,114.531z M259.068,125.573c-0.854,0-1.573-0.157-2.181-0.449
				c-0.607-0.293-1.057-0.743-1.372-1.305c-0.314-0.585-0.449-1.282-0.449-2.114s0.18-1.776,0.539-2.856
				c0.36-1.057,0.81-2.001,1.35-2.833c0.562-0.832,1.169-1.529,1.866-2.113c0.697-0.585,1.439-1.013,2.227-1.305
				c0.81-0.314,1.642-0.45,2.497-0.45c0.652,0,1.236,0.091,1.731,0.271c0.494,0.18,0.899,0.449,1.214,0.787
				c0.315,0.337,0.518,0.787,0.63,1.304c0.09,0.518,0.09,1.125-0.067,1.776h-2.227c0.112-0.382,0.135-0.719,0.112-1.012
				c-0.045-0.292-0.157-0.539-0.314-0.742c-0.18-0.202-0.404-0.337-0.697-0.449c-0.292-0.112-0.607-0.157-0.967-0.157
				c-0.518,0-1.013,0.112-1.507,0.314c-0.495,0.202-0.968,0.518-1.417,0.922c-0.45,0.405-0.854,0.922-1.237,1.552
				c-0.382,0.607-0.697,1.326-0.967,2.136s-0.428,1.529-0.473,2.137s0.022,1.124,0.203,1.552c0.157,0.404,0.427,0.72,0.787,0.922
				c0.359,0.202,0.787,0.315,1.304,0.315c0.338,0,0.697-0.046,1.034-0.136c0.36-0.09,0.676-0.247,0.99-0.427
				c0.314-0.203,0.585-0.428,0.832-0.72c0.248-0.293,0.45-0.63,0.585-1.012h2.227c-0.314,0.674-0.697,1.281-1.146,1.799
				c-0.45,0.517-0.945,0.944-1.485,1.282c-0.539,0.337-1.124,0.607-1.754,0.787s-1.26,0.27-1.89,0.27L259.068,125.573z
				 M282.3,125.573c-0.877,0-1.642-0.157-2.271-0.449c-0.629-0.293-1.102-0.743-1.438-1.305c-0.338-0.585-0.495-1.282-0.495-2.114
				s0.18-1.776,0.518-2.856c0.359-1.034,0.81-1.979,1.371-2.811c0.562-0.832,1.17-1.529,1.867-2.113
				c0.696-0.585,1.461-1.013,2.248-1.327c0.81-0.314,1.619-0.473,2.474-0.473c0.877,0,1.619,0.158,2.227,0.45
				c0.607,0.314,1.057,0.742,1.35,1.327c0.314,0.584,0.449,1.281,0.427,2.113s-0.202,1.776-0.54,2.811l-0.18,0.54h-9.152
				c-0.202,0.742-0.292,1.395-0.27,1.934c0.022,0.54,0.135,1.013,0.337,1.372c0.203,0.359,0.495,0.63,0.854,0.81
				c0.36,0.18,0.81,0.27,1.305,0.27c0.359,0,0.72-0.045,1.124-0.157c0.383-0.09,0.765-0.247,1.103-0.449
				c0.359-0.203,0.674-0.45,0.944-0.742c0.27-0.293,0.472-0.63,0.606-0.99h2.271c-0.314,0.652-0.697,1.26-1.169,1.755
				c-0.473,0.517-1.013,0.944-1.574,1.305c-0.585,0.337-1.215,0.607-1.866,0.81c-0.675,0.18-1.35,0.27-2.024,0.27L282.3,125.573z
				 M288.169,117.612c0.112-0.607,0.135-1.146,0.09-1.597c-0.045-0.449-0.157-0.832-0.359-1.146c-0.202-0.315-0.45-0.54-0.787-0.697
				c-0.338-0.157-0.72-0.247-1.147-0.247c-0.427,0-0.877,0.067-1.304,0.225c-0.428,0.157-0.832,0.382-1.237,0.675
				c-0.404,0.314-0.787,0.696-1.146,1.146s-0.697,0.989-0.989,1.619h6.858L288.169,117.612z"/>
		</g>
		<g>
			<polygon fill="#FEFEFE" points="58.021,59.906 80.308,60.109 86.379,58.468 64.273,58.445 			"/>
			<polygon fill="#FEFEFE" points="14.529,59.659 23.929,58.422 45.676,58.468 35.398,59.727 			"/>
			<polygon fill="#FEFEFE" points="81.544,60.716 58.854,93.167 79.61,132.005 87.999,127.912 65.533,92.784 86.875,58.962 			"/>
			<path fill="#FEFEFE" d="M9.086,125.326l19.475,2.271l13.516-24.918l11.402,27.369l24.737,2.631L56.987,93.392l23.096-32.743
				l-22.736-0.225L45.248,82.71L35.96,60.379l-21.5-0.135L31.575,91.48L9.131,125.326H9.086z M65.982,63.077
				c1.214,0,2.204,0.99,2.204,2.205c0,1.213-0.989,2.203-2.204,2.203s-2.204-0.99-2.204-2.203
				C63.778,64.067,64.768,63.077,65.982,63.077z M27.392,62.29c1.214,0,2.205,0.99,2.205,2.205c0,1.213-0.99,2.203-2.205,2.203
				c-1.215,0-2.204-0.99-2.204-2.203C25.188,63.28,26.177,62.29,27.392,62.29z"/>
			<path fill="#FEFEFE" d="M34.993,58.85c1.462-6.993,6.072-12.099,11.56-14.73c2.811-1.349,5.87-2.068,8.86-2.046
				c3.014,0,5.959,0.742,8.545,2.271c4.296,2.541,7.602,7.285,8.546,14.55l-1.147,0.112c-0.877-6.926-3.98-11.401-8.005-13.785
				c-2.406-1.417-5.127-2.092-7.939-2.114c-2.811,0-5.667,0.652-8.321,1.935c-5.217,2.496-9.58,7.354-10.952,13.987l-1.125-0.202
				L34.993,58.85z"/>
			<polygon fill="#FEFEFE" points="42.055,105.693 31.192,125.506 40.84,119.029 44.686,112.013 			"/>
			<path fill="#FEFEFE" d="M26.875,64.831c1.259-10.682,6.521-18.283,12.796-21.903c2.743-1.574,5.667-2.406,8.568-2.384
				c2.901,0,5.757,0.854,8.321,2.586c5.24,3.576,9.243,10.952,9.917,22.736l-1.079,0.066c-0.63-11.423-4.453-18.508-9.445-21.903
				c-2.384-1.619-5.015-2.405-7.713-2.405c-2.699,0-5.442,0.764-8.029,2.248c-6.004,3.463-11.042,10.772-12.256,21.094l-1.08-0.111
				V64.831z"/>
			<polygon fill="#FEFEFE" points="37.333,60.267 46.553,59.007 50.915,69.509 45.405,79.562 			"/>
		</g>
	</g>
</g>
</svg>
